<svg xmlns="http://www.w3.org/2000/svg" viewBox="0 0 960 540" font-family="'SF Mono','Fira Code','Cascadia Code',monospace">
  <defs>
    <linearGradient id="bg" x1="0%" y1="0%" x2="100%" y2="100%">
      <stop offset="0%" stop-color="#0a0e14"/>
      <stop offset="100%" stop-color="#10151c"/>
    </linearGradient>
    <radialGradient id="pi-aura" cx="50%" cy="50%" r="50%">
      <stop offset="0%" stop-color="#58a6ff" stop-opacity="0.12"/>
      <stop offset="60%" stop-color="#58a6ff" stop-opacity="0.03"/>
      <stop offset="100%" stop-color="#58a6ff" stop-opacity="0"/>
    </radialGradient>
    <radialGradient id="eye-grad" cx="50%" cy="50%" r="50%">
      <stop offset="0%" stop-color="#58a6ff" stop-opacity="0.08"/>
      <stop offset="100%" stop-color="#58a6ff" stop-opacity="0"/>
    </radialGradient>
    <filter id="glow"><feGaussianBlur stdDeviation="4" result="b"/><feMerge><feMergeNode in="b"/><feMergeNode in="SourceGraphic"/></feMerge></filter>
    <filter id="glow2"><feGaussianBlur stdDeviation="2" result="b"/><feMerge><feMergeNode in="b"/><feMergeNode in="SourceGraphic"/></feMerge></filter>
    <filter id="shadow"><feDropShadow dx="0" dy="2" stdDeviation="4" flood-color="#000" flood-opacity="0.6"/></filter>
    <filter id="softshadow"><feDropShadow dx="0" dy="1" stdDeviation="2" flood-color="#000" flood-opacity="0.4"/></filter>
    <linearGradient id="kanban-grad" x1="0%" y1="0%" x2="100%" y2="100%"><stop offset="0%" stop-color="#79c0ff"/><stop offset="100%" stop-color="#388bfd"/></linearGradient>
    <linearGradient id="matrix-grad" x1="0%" y1="0%" x2="100%" y2="100%"><stop offset="0%" stop-color="#56d364"/><stop offset="100%" stop-color="#2ea043"/></linearGradient>
    <linearGradient id="cheats-grad" x1="0%" y1="0%" x2="100%" y2="100%"><stop offset="0%" stop-color="#d2a8ff"/><stop offset="100%" stop-color="#a371f7"/></linearGradient>
    <linearGradient id="council-grad" x1="0%" y1="0%" x2="100%" y2="100%"><stop offset="0%" stop-color="#ffa657"/><stop offset="100%" stop-color="#f0883e"/></linearGradient>
    <linearGradient id="panopt-grad" x1="0%" y1="0%" x2="100%" y2="100%"><stop offset="0%" stop-color="#ff7b72"/><stop offset="100%" stop-color="#da3633"/></linearGradient>
  </defs>

  <!-- Background -->
  <rect width="960" height="540" fill="url(#bg)" rx="16"/>

  <!-- Subtle pi digits in background -->
  <g fill="#1c2333" font-size="13" opacity="0.35">
    <text x="20" y="30">3.14159265358979323846264338327950288419716939937510</text>
    <text x="450" y="530">58209749445923078164062862089986280348253421170679</text>
    <text x="10" y="270" font-size="10" opacity="0.2">314159265358979323846</text>
    <text x="800" y="100" font-size="10" opacity="0.2">2643383279</text>
  </g>

  <!-- ═══════ CENTRAL π PANOPTICON ═══════ -->
  <!-- Large eye-shaped aura -->
  <path d="M 330 280 Q 480 140 630 280 Q 480 420 330 280 Z" fill="url(#eye-grad)" stroke="#58a6ff" stroke-width="0.8" opacity="0.15"/>
  <!-- Concentric rings like a panopticon -->
  <circle cx="480" cy="280" r="160" fill="none" stroke="#58a6ff" stroke-width="0.4" opacity="0.1" stroke-dasharray="4,8"/>
  <circle cx="480" cy="280" r="120" fill="none" stroke="#58a6ff" stroke-width="0.6" opacity="0.12" stroke-dasharray="3,6"/>
  <circle cx="480" cy="280" r="80" fill="none" stroke="#58a6ff" stroke-width="0.8" opacity="0.15" stroke-dasharray="2,4"/>

  <!-- Radial aura glow -->
  <circle cx="480" cy="280" r="90" fill="url(#pi-aura)"/>

  <!-- THE π SYMBOL — big, bold, glowing -->
  <text x="480" y="310" text-anchor="middle" fill="#58a6ff" font-size="140" font-weight="bold" filter="url(#glow)" opacity="0.95">π</text>
  <!-- Subtle inner circuit traces on π -->
  <g stroke="#79c0ff" stroke-width="0.6" opacity="0.2">
    <circle cx="468" cy="258" r="4" fill="none"/>
    <circle cx="492" cy="258" r="4" fill="none"/>
    <line x1="472" y1="258" x2="488" y2="258"/>
    <circle cx="480" cy="280" r="3" fill="#58a6ff" opacity="0.3"/>
    <circle cx="480" cy="300" r="3" fill="#58a6ff" opacity="0.3"/>
  </g>

  <!-- ═══════ CONNECTION BEAMS from π to each extension ═══════ -->
  <!-- π → kanban (top-left) -->
  <line x1="420" y1="240" x2="155" y2="115" stroke="#388bfd" stroke-width="1" opacity="0.3" stroke-dasharray="6,4"/>
  <circle cx="155" cy="115" r="3" fill="#388bfd" opacity="0.5"/>
  <!-- π → matrix (top) -->
  <line x1="480" y1="220" x2="480" y2="100" stroke="#2ea043" stroke-width="1" opacity="0.3" stroke-dasharray="6,4"/>
  <circle cx="480" cy="100" r="3" fill="#2ea043" opacity="0.5"/>
  <!-- π → cheatsheets (top-right) -->
  <line x1="540" y1="240" x2="805" y2="115" stroke="#a371f7" stroke-width="1" opacity="0.3" stroke-dasharray="6,4"/>
  <circle cx="805" cy="115" r="3" fill="#a371f7" opacity="0.5"/>
  <!-- π → council (bottom-right) -->
  <line x1="540" y1="320" x2="790" y2="420" stroke="#f0883e" stroke-width="1" opacity="0.3" stroke-dasharray="6,4"/>
  <circle cx="790" cy="420" r="3" fill="#f0883e" opacity="0.5"/>
  <!-- π → panopticon (bottom-left) -->
  <line x1="420" y1="320" x2="170" y2="420" stroke="#da3633" stroke-width="1" opacity="0.3" stroke-dasharray="6,4"/>
  <circle cx="170" cy="420" r="3" fill="#da3633" opacity="0.5"/>

  <!-- Scanning sweep line (panopticon radar) -->
  <line x1="480" y1="280" x2="330" y2="185" stroke="#58a6ff" stroke-width="0.8" opacity="0.08"/>
  <line x1="480" y1="280" x2="630" y2="375" stroke="#58a6ff" stroke-width="0.8" opacity="0.08"/>

  <!-- ═══════ TITLE ═══════ -->
  <text x="480" y="38" text-anchor="middle" fill="#f0f6fc" font-size="26" font-weight="bold" filter="url(#glow2)">pi-tools-and-skills</text>
  <text x="480" y="58" text-anchor="middle" fill="#8b949e" font-size="12">extensions · skills · memories —  <tspan fill="#58a6ff" font-size="14">π</tspan>  sees all, coordinates all</text>

  <!-- ═══════ EXTENSION: kanban (top-left) ═══════ -->
  <g transform="translate(30, 78)">
    <rect width="200" height="140" rx="10" fill="#12161d" stroke="#30363d" stroke-width="1" filter="url(#softshadow)"/>
    <rect width="200" height="3" rx="1.5" fill="url(#kanban-grad)"/>
    <!-- Agent figure -->
    <circle cx="28" cy="28" r="10" fill="#0d1117" stroke="#79c0ff" stroke-width="1.5"/>
    <text x="28" y="32" text-anchor="middle" fill="#79c0ff" font-size="11">🤖</text>
    <path d="M 38 28 L 55 28" stroke="#388bfd" stroke-width="1.2" stroke-dasharray="3,2"/>
    <!-- Arrow pointing right toward mini boards -->
    <polygon points="57,28 52,24 52,32" fill="#388bfd" opacity="0.7"/>
    <!-- Mini kanban board -->
    <rect x="62" y="16" width="26" height="38" rx="2" fill="#0d1117" stroke="#388bfd" stroke-width="0.8"/>
    <rect x="64" y="19" width="22" height="4" rx="1" fill="#388bfd" opacity="0.6"/>
    <rect x="64" y="26" width="16" height="4" rx="1" fill="#388bfd" opacity="0.3"/>
    <rect x="92" y="16" width="26" height="38" rx="2" fill="#0d1117" stroke="#79c0ff" stroke-width="0.8"/>
    <rect x="94" y="19" width="22" height="4" rx="1" fill="#79c0ff" opacity="0.6"/>
    <rect x="94" y="30" width="14" height="4" rx="1" fill="#79c0ff" opacity="0.3"/>
    <rect x="122" y="16" width="26" height="38" rx="2" fill="#0d1117" stroke="#a5d6ff" stroke-width="0.8"/>
    <rect x="124" y="19" width="22" height="4" rx="1" fill="#a5d6ff" opacity="0.6"/>

    <text x="100" y="74" text-anchor="middle" fill="#79c0ff" font-size="13" font-weight="bold">kanban</text>
    <text x="100" y="90" text-anchor="middle" fill="#8b949e" font-size="9">event-sourced board</text>
    <text x="100" y="103" text-anchor="middle" fill="#8b949e" font-size="9">14 tools &amp; TUI widget</text>
    <rect x="140" y="115" width="50" height="15" rx="7" fill="#388bfd" opacity="0.12" stroke="#388bfd" stroke-width="0.5"/>
    <text x="165" y="125" text-anchor="middle" fill="#79c0ff" font-size="8" font-weight="bold">14 tools</text>
  </g>

  <!-- ═══════ EXTENSION: matrix (top-center) ═══════ -->
  <g transform="translate(380, 78)">
    <rect width="200" height="140" rx="10" fill="#12161d" stroke="#30363d" stroke-width="1" filter="url(#softshadow)"/>
    <rect width="200" height="3" rx="1.5" fill="url(#matrix-grad)"/>
    <!-- Agent figure -->
    <circle cx="28" cy="34" r="10" fill="#0d1117" stroke="#56d364" stroke-width="1.5"/>
    <text x="28" y="38" text-anchor="middle" fill="#56d364" font-size="11">🤖</text>
    <!-- Connection to phone -->
    <path d="M 38 34 Q 55 30 68 34" stroke="#2ea043" stroke-width="1.2" stroke-dasharray="3,2" fill="none"/>
    <!-- Phone -->
    <rect x="70" y="14" width="24" height="42" rx="5" fill="none" stroke="#56d364" stroke-width="1.2"/>
    <rect x="74" y="20" width="16" height="22" rx="2" fill="#0d1117" stroke="#2ea043" stroke-width="0.6"/>
    <circle cx="82" cy="48" r="2" fill="#56d364"/>
    <!-- Chat bubbles on phone screen -->
    <rect x="76" y="22" width="10" height="5" rx="2" fill="#2ea043" opacity="0.6"/>
    <rect x="79" y="29" width="8" height="5" rx="2" fill="#56d364" opacity="0.5"/>
    <!-- Arrow to chat cloud -->
    <path d="M 94 34 L 110 34" stroke="#3fb950" stroke-width="1.2"/>
    <polygon points="112,34 107,30 107,38" fill="#3fb950" opacity="0.7"/>
    <!-- Chat cloud -->
    <rect x="114" y="18" width="58" height="28" rx="8" fill="#0d1117" stroke="#56d364" stroke-width="0.8"/>
    <text x="125" y="34" fill="#3fb950" font-size="7">✓ reply sent</text>

    <text x="100" y="80" text-anchor="middle" fill="#56d364" font-size="13" font-weight="bold">matrix</text>
    <text x="100" y="96" text-anchor="middle" fill="#8b949e" font-size="9">phone ↔ agent bridge</text>
    <text x="100" y="109" text-anchor="middle" fill="#8b949e" font-size="9">via Matrix protocol</text>
    <rect x="134" y="120" width="56" height="15" rx="7" fill="#2ea043" opacity="0.12" stroke="#2ea043" stroke-width="0.5"/>
    <text x="162" y="131" text-anchor="middle" fill="#56d364" font-size="8" font-weight="bold">transport</text>
  </g>

  <!-- ═══════ EXTENSION: cheatcheats (top-right) ═══════ -->
  <g transform="translate(730, 78)">
    <rect width="200" height="140" rx="10" fill="#12161d" stroke="#30363d" stroke-width="1" filter="url(#softshadow)"/>
    <rect width="200" height="3" rx="1.5" fill="url(#cheats-grad)"/>
    <!-- Agent figure -->
    <circle cx="28" cy="28" r="10" fill="#0d1117" stroke="#d2a8ff" stroke-width="1.5"/>
    <text x="28" y="32" text-anchor="middle" fill="#d2a8ff" font-size="11">🤖</text>
    <!-- Arrow from agent to compression -->
    <path d="M 38 28 L 52 28" stroke="#a371f7" stroke-width="1.2"/>
    <polygon points="54,28 49,24 49,32" fill="#a371f7" opacity="0.7"/>
    <!-- Big doc (raw) left -->
    <rect x="60" y="10" width="48" height="48" rx="3" fill="#0d1117" stroke="#6e40c9" stroke-width="0.8"/>
    <rect x="64" y="14" width="40" height="3" rx="1" fill="#484f58" opacity="0.7"/>
    <rect x="64" y="20" width="40" height="3" rx="1" fill="#484f58" opacity="0.5"/>
    <rect x="64" y="26" width="30" height="3" rx="1" fill="#484f58" opacity="0.5"/>
    <rect x="64" y="32" width="40" height="3" rx="1" fill="#484f58" opacity="0.4"/>
    <rect x="64" y="38" width="22" height="3" rx="1" fill="#484f58" opacity="0.4"/>
    <rect x="64" y="44" width="36" height="3" rx="1" fill="#484f58" opacity="0.3"/>
    <!-- X through big doc (compression) -->
    <line x1="60" y1="10" x2="108" y2="58" stroke="#a371f7" stroke-width="1.5" opacity="0.4"/>
    <line x1="108" y1="10" x2="60" y2="58" stroke="#a371f7" stroke-width="1.5" opacity="0.4"/>
    <!-- Small compressed doc -->
    <rect x="118" y="22" width="34" height="28" rx="3" fill="#0d1117" stroke="#a371f7" stroke-width="1"/>
    <rect x="122" y="26" width="26" height="4" rx="1" fill="#d2a8ff" opacity="0.8"/>
    <rect x="122" y="34" width="18" height="4" rx="1" fill="#a371f7" opacity="0.6"/>
    <rect x="122" y="42" width="22" height="4" rx="1" fill="#a371f7" opacity="0.4"/>
    <!-- Token savings badge -->
    <text x="135" y="66" text-anchor="middle" fill="#3fb950" font-size="10" font-weight="bold">−70%</text>

    <text x="100" y="86" text-anchor="middle" fill="#d2a8ff" font-size="13" font-weight="bold">cheatsheets</text>
    <text x="100" y="102" text-anchor="middle" fill="#8b949e" font-size="9">inject .mmem.yml into</text>
    <text x="100" y="115" text-anchor="middle" fill="#8b949e" font-size="9">agent context</text>
    <rect x="130" y="122" width="56" height="15" rx="7" fill="#a371f7" opacity="0.12" stroke="#a371f7" stroke-width="0.5"/>
    <text x="158" y="132" text-anchor="middle" fill="#d2a8ff" font-size="8" font-weight="bold">−70% tok</text>
  </g>

  <!-- ═══════ EXTENSION: llm-council (bottom-right) ═══════ -->
  <g transform="translate(700, 392)">
    <rect width="230" height="130" rx="10" fill="#12161d" stroke="#30363d" stroke-width="1" filter="url(#softshadow)"/>
    <rect width="230" height="3" rx="1.5" fill="url(#council-grad)"/>
    <!-- Agent figure (centre, orchestrating) -->
    <circle cx="30" cy="38" r="10" fill="#0d1117" stroke="#ffa657" stroke-width="1.5"/>
    <text x="30" y="42" text-anchor="middle" fill="#ffa657" font-size="11">🤖</text>
    <!-- Three debating model heads -->
    <path d="M 40 38 L 56 38" stroke="#f0883e" stroke-width="1.2" stroke-dasharray="3,2"/>
    <!-- Model 1 -->
    <circle cx="70" cy="24" r="14" fill="#0d1117" stroke="#ffa657" stroke-width="1.2"/>
    <text x="70" y="29" text-anchor="middle" font-size="14">🤔</text>
    <!-- Model 2 -->
    <circle cx="108" cy="24" r="14" fill="#0d1117" stroke="#f0883e" stroke-width="1.2"/>
    <text x="108" y="29" text-anchor="middle" font-size="14">💡</text>
    <!-- Model 3 -->
    <circle cx="146" cy="24" r="14" fill="#0d1117" stroke="#ffa657" stroke-width="1.2"/>
    <text x="146" y="29" text-anchor="middle" font-size="14">🔍</text>
    <!-- Debate arcs -->
    <path d="M 80 18 Q 90 10 100 18" stroke="#ffa657" stroke-width="0.8" fill="none" stroke-dasharray="2,2"/>
    <path d="M 116 18 Q 126 10 136 18" stroke="#ffa657" stroke-width="0.8" fill="none" stroke-dasharray="2,2"/>
    <!-- Synthesis funnel -->
    <path d="M 70 40 L 88 48 L 70 56" stroke="#f0883e" stroke-width="0.8" fill="none" opacity="0.4"/>
    <path d="M 146 40 L 128 48 L 146 56" stroke="#f0883e" stroke-width="0.8" fill="none" opacity="0.4"/>
    <!-- Result -->
    <rect x="84" y="46" width="44" height="14" rx="7" fill="#ffa657" opacity="0.15" stroke="#ffa657" stroke-width="0.6"/>
    <text x="106" y="56" text-anchor="middle" fill="#ffa657" font-size="7" font-weight="bold">CONSENSUS</text>

    <text x="108" y="80" text-anchor="middle" fill="#ffa657" font-size="13" font-weight="bold">llm-council</text>
    <text x="108" y="96" text-anchor="middle" fill="#8b949e" font-size="9">multi-model debate &amp; pair</text>
    <rect x="146" y="105" width="46" height="15" rx="7" fill="#f0883e" opacity="0.12" stroke="#f0883e" stroke-width="0.5"/>
    <text x="169" y="115" text-anchor="middle" fill="#ffa657" font-size="8" font-weight="bold">debate</text>
    <rect x="196" y="105" width="28" height="15" rx="7" fill="#f0883e" opacity="0.12" stroke="#f0883e" stroke-width="0.5"/>
    <text x="210" y="115" text-anchor="middle" fill="#ffa657" font-size="8" font-weight="bold">pair</text>
  </g>

  <!-- ═══════ EXTENSION: panopticon (bottom-left) ═══════ -->
  <g transform="translate(50, 392)">
    <rect width="200" height="130" rx="10" fill="#12161d" stroke="#30363d" stroke-width="1" filter="url(#softshadow)"/>
    <rect width="200" height="3" rx="1.5" fill="url(#panopt-grad)"/>
    <!-- Agent figure using panopticon -->
    <circle cx="28" cy="40" r="10" fill="#0d1117" stroke="#ff7b72" stroke-width="1.5"/>
    <text x="28" y="44" text-anchor="middle" fill="#ff7b72" font-size="11">🤖</text>
    <!-- Connection line to panopticon eye -->
    <path d="M 38 40 L 58 40" stroke="#da3633" stroke-width="1.2" stroke-dasharray="3,2"/>
    <!-- Panopticon eye -->
    <path d="M 62 40 Q 90 14 118 40 Q 90 66 62 40 Z" fill="#0d1117" stroke="#ff7b72" stroke-width="1.5"/>
    <circle cx="90" cy="40" r="12" fill="none" stroke="#da3633" stroke-width="1.2"/>
    <circle cx="90" cy="40" r="5" fill="#ff7b72" filter="url(#glow2)"/>
    <!-- Orbiting agent dots that the eye watches -->
    <circle cx="62" cy="24" r="3" fill="#da3633" opacity="0.7"/>
    <line x1="64" y1="26" x2="72" y2="32" stroke="#da3633" stroke-width="0.5" opacity="0.4"/>
    <circle cx="118" cy="24" r="3" fill="#da3633" opacity="0.7"/>
    <line x1="116" y1="26" x2="108" y2="32" stroke="#da3633" stroke-width="0.5" opacity="0.4"/>
    <circle cx="90" cy="10" r="2.5" fill="#da3633" opacity="0.6"/>
    <line x1="90" y1="13" x2="90" y2="27" stroke="#da3633" stroke-width="0.5" opacity="0.4"/>
    <circle cx="72" cy="60" r="2" fill="#da3633" opacity="0.4"/>
    <circle cx="108" cy="60" r="2" fill="#da3633" opacity="0.4"/>

    <text x="130" y="60" text-anchor="middle" fill="#ff7b72" font-size="13" font-weight="bold">panopticon</text>
    <text x="130" y="76" text-anchor="middle" fill="#8b949e" font-size="9">agent registry, spawn</text>
    <text x="130" y="89" text-anchor="middle" fill="#8b949e" font-size="9">&amp; health monitoring</text>
    <rect x="78" y="100" width="30" height="15" rx="7" fill="#da3633" opacity="0.12" stroke="#da3633" stroke-width="0.5"/>
    <text x="93" y="111" text-anchor="middle" fill="#ff7b72" font-size="8" font-weight="bold">RPC</text>
    <rect x="114" y="100" width="34" height="15" rx="7" fill="#da3633" opacity="0.12" stroke="#da3633" stroke-width="0.5"/>
    <text x="131" y="111" text-anchor="middle" fill="#ff7b72" font-size="8" font-weight="bold">spawn</text>
    <rect x="154" y="100" width="38" height="15" rx="7" fill="#da3633" opacity="0.12" stroke="#da3633" stroke-width="0.5"/>
    <text x="173" y="111" text-anchor="middle" fill="#ff7b72" font-size="8" font-weight="bold">health</text>
  </g>

  <!-- ═══════ Footnote: π digits flowing ═══════ -->
  <text x="480" y="486" text-anchor="middle" fill="#58a6ff" font-size="10" opacity="0.25">3.1415926535897932384626433832795028841971693993751058209749445923078164062862089986280348253421170679…</text>

  <!-- Outer border -->
  <rect width="960" height="540" fill="none" stroke="#1c2333" stroke-width="2" rx="16"/>
</svg>